<svg width="358" height="54" viewBox="0 0 358 54" fill="none" xmlns="http://www.w3.org/2000/svg">
<g filter="url(#filter0_d_1_192)">
<path d="M23.2899 14.6602V19.5455H8V14.6602H23.2899ZM11.7748 8.23967H18.0432V33.3985C18.0432 34.2476 18.1701 34.899 18.4241 35.3526C18.6896 35.7946 19.0359 36.097 19.4631 36.2599C19.8902 36.4227 20.3635 36.5041 20.883 36.5041C21.2754 36.5041 21.6333 36.4751 21.9565 36.4169C22.2913 36.3587 22.5453 36.3064 22.7184 36.2599L23.7747 41.1974C23.4399 41.3137 22.9608 41.4417 22.3375 41.5813C21.7257 41.7208 20.9753 41.8023 20.0864 41.8255C18.5165 41.8721 17.1023 41.6336 15.8441 41.1102C14.5858 40.5751 13.5872 39.7493 12.8484 38.6327C12.1212 37.5161 11.7633 36.1203 11.7748 34.4454V8.23967Z" fill="url(#paint0_linear_1_192)"/>
<path d="M40.0212 41.9826C37.3546 41.9826 35.0516 41.4242 33.1122 40.3076C31.1844 39.1794 29.701 37.5859 28.6621 35.5271C27.6231 33.4567 27.1037 31.0199 27.1037 28.2167C27.1037 25.4601 27.6231 23.0407 28.6621 20.9587C29.7126 18.865 31.1786 17.2366 33.0603 16.0735C34.9419 14.8987 37.1526 14.3113 39.6922 14.3113C41.3315 14.3113 42.8783 14.5788 44.3329 15.1139C45.7989 15.6373 47.0919 16.4515 48.2116 17.5565C49.3429 18.6615 50.2318 20.0689 50.8782 21.7787C51.5247 23.4769 51.8479 25.5008 51.8479 27.8503V29.787H30.0473V25.5298H45.8393C45.8278 24.3202 45.5681 23.2443 45.0601 22.3021C44.5522 21.3483 43.8423 20.5981 42.9303 20.0514C42.0299 19.5047 40.9794 19.2314 39.7788 19.2314C38.4974 19.2314 37.3719 19.5455 36.4022 20.1736C35.4326 20.79 34.6764 21.6042 34.1339 22.6162C33.6028 23.6165 33.3316 24.7156 33.32 25.9137V29.6299C33.32 31.1886 33.6029 32.5262 34.1685 33.6428C34.7341 34.7478 35.5249 35.5969 36.5408 36.1901C37.5566 36.7717 38.7456 37.0624 40.1078 37.0624C41.0198 37.0624 41.8452 36.9345 42.584 36.6786C43.3228 36.4111 43.9635 36.0214 44.506 35.5096C45.0486 34.9979 45.4584 34.3639 45.7355 33.6079L51.5882 34.2709C51.2188 35.8295 50.5146 37.1904 49.4757 38.3535C48.4483 39.5051 47.1323 40.4007 45.5277 41.0404C43.9231 41.6685 42.0876 41.9826 40.0212 41.9826Z" fill="url(#paint1_linear_1_192)"/>
<path d="M68.7525 41.9826C66.0974 41.9826 63.8175 41.3952 61.9127 40.2204C60.0195 39.0456 58.5592 37.423 57.5318 35.3526C56.516 33.2706 56.008 30.8745 56.008 28.1644C56.008 25.4426 56.5275 23.0407 57.5665 20.9587C58.6054 18.865 60.0715 17.2366 61.9647 16.0735C63.8694 14.8987 66.1205 14.3113 68.7178 14.3113C70.8766 14.3113 72.7871 14.7126 74.4494 15.5152C76.1232 16.3061 77.4566 17.4285 78.4493 18.8825C79.4421 20.3248 80.0078 22.0113 80.1463 23.9422H74.155C73.9126 22.6511 73.3354 21.5751 72.4234 20.7144C71.523 19.8421 70.3167 19.4059 68.8044 19.4059C67.5231 19.4059 66.3975 19.7548 65.4278 20.4527C64.4582 21.139 63.702 22.1276 63.1595 23.4187C62.6285 24.7098 62.3629 26.2568 62.3629 28.0597C62.3629 29.8858 62.6285 31.4561 63.1595 32.7704C63.6905 34.0732 64.4351 35.0793 65.3932 35.7888C66.3629 36.4867 67.5 36.8356 68.8044 36.8356C69.7279 36.8356 70.5533 36.6612 71.2806 36.3122C72.0194 35.9516 72.637 35.434 73.1334 34.7594C73.6298 34.0848 73.9703 33.2648 74.155 32.2994H80.1463C79.9962 34.1953 79.4421 35.876 78.484 37.3416C77.5258 38.7955 76.2214 39.9354 74.5706 40.7612C72.9198 41.5755 70.9804 41.9826 68.7525 41.9826Z" fill="url(#paint2_linear_1_192)"/>
<path d="M91.5617 25.7567V41.4591H85.2934V5.72727H91.4232V19.214H91.7349C92.3582 17.7019 93.3222 16.5096 94.6266 15.6373C95.9426 14.7533 97.6165 14.3113 99.6482 14.3113C101.495 14.3113 103.106 14.7009 104.479 15.4803C105.853 16.2596 106.915 17.3994 107.665 18.8999C108.427 20.4004 108.808 22.2323 108.808 24.3958V41.4591H102.54V25.3728C102.54 23.5699 102.078 22.1684 101.155 21.168C100.243 20.1561 98.9613 19.6501 97.3106 19.6501C96.2023 19.6501 95.2096 19.8944 94.3322 20.3829C93.4665 20.8598 92.7854 21.5519 92.289 22.4591C91.8041 23.3664 91.5617 24.4656 91.5617 25.7567Z" fill="url(#paint3_linear_1_192)"/>
<path d="M121.466 25.7567V41.4591H115.198V14.6602H121.189V19.214H121.501C122.113 17.7135 123.088 16.5213 124.427 15.6373C125.778 14.7533 127.446 14.3113 129.431 14.3113C131.267 14.3113 132.866 14.7068 134.228 15.4977C135.602 16.2886 136.664 17.4343 137.414 18.9348C138.176 20.4353 138.551 22.2556 138.539 24.3958V41.4591H132.271V25.3728C132.271 23.5816 131.809 22.18 130.886 21.168C129.974 20.1561 128.71 19.6501 127.094 19.6501C125.997 19.6501 125.022 19.8944 124.167 20.3829C123.325 20.8598 122.661 21.5519 122.176 22.4591C121.703 23.3664 121.466 24.4656 121.466 25.7567Z" fill="url(#paint4_linear_1_192)"/>
<path d="M144.912 41.4591V14.6602H151.18V41.4591H144.912ZM148.063 10.8568C147.07 10.8568 146.216 10.5253 145.5 9.86226C144.785 9.18763 144.427 8.37925 144.427 7.4371C144.427 6.48332 144.785 5.67493 145.5 5.01194C146.216 4.33731 147.07 4 148.063 4C149.067 4 149.922 4.33731 150.626 5.01194C151.342 5.67493 151.699 6.48332 151.699 7.4371C151.699 8.37925 151.342 9.18763 150.626 9.86226C149.922 10.5253 149.067 10.8568 148.063 10.8568Z" fill="url(#paint5_linear_1_192)"/>
<path d="M169.227 41.9826C166.572 41.9826 164.292 41.3952 162.388 40.2204C160.494 39.0456 159.034 37.423 158.007 35.3526C156.991 33.2706 156.483 30.8745 156.483 28.1644C156.483 25.4426 157.002 23.0407 158.041 20.9587C159.08 18.865 160.546 17.2366 162.44 16.0735C164.344 14.8987 166.595 14.3113 169.193 14.3113C171.351 14.3113 173.262 14.7126 174.924 15.5152C176.598 16.3061 177.931 17.4285 178.924 18.8825C179.917 20.3248 180.483 22.0113 180.621 23.9422H174.63C174.387 22.6511 173.81 21.5751 172.898 20.7144C171.998 19.8421 170.792 19.4059 169.279 19.4059C167.998 19.4059 166.872 19.7548 165.903 20.4527C164.933 21.139 164.177 22.1276 163.634 23.4187C163.103 24.7098 162.838 26.2568 162.838 28.0597C162.838 29.8858 163.103 31.4561 163.634 32.7704C164.165 34.0732 164.91 35.0793 165.868 35.7888C166.838 36.4867 167.975 36.8356 169.279 36.8356C170.203 36.8356 171.028 36.6612 171.756 36.3122C172.494 35.9516 173.112 35.434 173.608 34.7594C174.105 34.0848 174.445 33.2648 174.63 32.2994H180.621C180.471 34.1953 179.917 35.876 178.959 37.3416C178.001 38.7955 176.696 39.9354 175.046 40.7612C173.395 41.5755 171.455 41.9826 169.227 41.9826Z" fill="url(#paint6_linear_1_192)"/>
<path d="M193.422 42C191.736 42 190.218 41.6976 188.868 41.0927C187.529 40.4763 186.467 39.569 185.682 38.371C184.908 37.1729 184.522 35.6957 184.522 33.9394C184.522 32.4273 184.799 31.1769 185.353 30.1882C185.907 29.1996 186.663 28.4086 187.621 27.8154C188.579 27.2222 189.659 26.7744 190.859 26.472C192.071 26.1579 193.324 25.9311 194.617 25.7916C196.175 25.6287 197.439 25.4833 198.409 25.3554C199.379 25.2158 200.083 25.0064 200.521 24.7273C200.972 24.4365 201.197 23.9887 201.197 23.3838V23.2792C201.197 21.9648 200.81 20.947 200.037 20.2259C199.263 19.5047 198.149 19.1442 196.695 19.1442C195.159 19.1442 193.941 19.4815 193.041 20.1561C192.152 20.8307 191.552 21.6275 191.24 22.5464L185.387 21.7089C185.849 20.0805 186.611 18.7196 187.673 17.6263C188.735 16.5213 190.034 15.6954 191.569 15.1488C193.104 14.5905 194.801 14.3113 196.66 14.3113C197.941 14.3113 199.217 14.4625 200.487 14.7649C201.757 15.0673 202.917 15.5675 203.967 16.2654C205.018 16.9516 205.86 17.888 206.495 19.0744C207.142 20.2608 207.465 21.7438 207.465 23.5234V41.4591H201.439V37.7778H201.231C200.85 38.5222 200.314 39.2201 199.621 39.8714C198.94 40.5112 198.08 41.0288 197.041 41.4242C196.014 41.8081 194.807 42 193.422 42ZM195.05 37.359C196.308 37.359 197.399 37.109 198.322 36.6088C199.246 36.097 199.956 35.4224 200.452 34.5849C200.96 33.7475 201.214 32.8344 201.214 31.8457V28.6878C201.018 28.8506 200.683 29.0018 200.21 29.1414C199.748 29.281 199.228 29.4031 198.651 29.5078C198.074 29.6125 197.503 29.7055 196.937 29.787C196.371 29.8684 195.881 29.9382 195.465 29.9963C194.53 30.1243 193.693 30.3336 192.954 30.6244C192.216 30.9152 191.633 31.3223 191.205 31.8457C190.778 32.3575 190.565 33.0205 190.565 33.8347C190.565 34.9979 190.986 35.876 191.829 36.4692C192.672 37.0624 193.745 37.359 195.05 37.359Z" fill="url(#paint7_linear_1_192)"/>
<path d="M220.036 5.72727V41.4591H213.768V5.72727H220.036Z" fill="url(#paint8_linear_1_192)"/>
<path d="M247.503 21.7438L241.789 22.3719C241.628 21.7903 241.345 21.2437 240.941 20.7319C240.548 20.2201 240.017 19.8072 239.348 19.4931C238.678 19.1791 237.859 19.022 236.889 19.022C235.584 19.022 234.488 19.307 233.599 19.877C232.722 20.4469 232.289 21.1855 232.3 22.0927C232.289 22.8721 232.571 23.506 233.149 23.9945C233.737 24.483 234.707 24.8843 236.058 25.1983L240.594 26.1754C243.111 26.7221 244.981 27.5886 246.205 28.775C247.44 29.9614 248.063 31.5142 248.075 33.4334C248.063 35.12 247.573 36.6088 246.603 37.8999C245.645 39.1794 244.312 40.1797 242.603 40.9008C240.895 41.622 238.932 41.9826 236.716 41.9826C233.46 41.9826 230.84 41.2963 228.854 39.9238C226.869 38.5396 225.686 36.6146 225.305 34.1488L231.417 33.5556C231.694 34.7652 232.283 35.6783 233.183 36.2948C234.084 36.9112 235.255 37.2195 236.698 37.2195C238.188 37.2195 239.382 36.9112 240.283 36.2948C241.195 35.6783 241.651 34.9164 241.651 34.0092C241.651 33.2415 241.356 32.6076 240.768 32.1074C240.19 31.6073 239.29 31.2234 238.066 30.9559L233.53 29.9963C230.978 29.4613 229.091 28.5598 227.867 27.292C226.644 26.0126 226.038 24.3958 226.049 22.4417C226.038 20.79 226.482 19.3594 227.383 18.1497C228.294 16.9284 229.559 15.9862 231.175 15.3232C232.802 14.6486 234.678 14.3113 236.802 14.3113C239.919 14.3113 242.372 14.9801 244.162 16.3177C245.962 17.6553 247.076 19.464 247.503 21.7438Z" fill="url(#paint9_linear_1_192)"/>
<path d="M257.105 41.843C256.055 41.843 255.154 41.4708 254.404 40.7264C253.653 39.9819 253.284 39.0747 253.296 38.0046C253.284 36.9578 253.653 36.0621 254.404 35.3177C255.154 34.5733 256.055 34.2011 257.105 34.2011C258.121 34.2011 259.004 34.5733 259.754 35.3177C260.516 36.0621 260.903 36.9578 260.915 38.0046C260.903 38.7141 260.718 39.3597 260.36 39.9412C260.014 40.5228 259.552 40.9881 258.975 41.337C258.41 41.6743 257.786 41.843 257.105 41.843Z" fill="url(#paint10_linear_1_192)"/>
<path d="M277.256 41.9302C275.167 41.9302 273.297 41.3894 271.646 40.3076C269.995 39.2259 268.691 37.6556 267.733 35.5969C266.775 33.5381 266.295 31.0373 266.295 28.0946C266.295 25.1169 266.78 22.6045 267.75 20.5574C268.731 18.4986 270.053 16.9458 271.715 15.899C273.378 14.8405 275.23 14.3113 277.274 14.3113C278.832 14.3113 280.113 14.5788 281.118 15.1139C282.122 15.6373 282.919 16.2712 283.507 17.0156C284.096 17.7484 284.552 18.4405 284.875 19.0918H285.135V5.72727H291.421V41.4591H285.256V37.2369H284.875C284.552 37.8883 284.085 38.5803 283.473 39.3131C282.861 40.0343 282.053 40.6507 281.048 41.1625C280.044 41.6743 278.78 41.9302 277.256 41.9302ZM279.005 36.7484C280.333 36.7484 281.464 36.3878 282.399 35.6667C283.334 34.9339 284.044 33.9161 284.529 32.6134C285.014 31.3107 285.256 29.7928 285.256 28.0597C285.256 26.3266 285.014 24.8203 284.529 23.5409C284.056 22.2614 283.352 21.2669 282.416 20.5574C281.493 19.8479 280.356 19.4931 279.005 19.4931C277.608 19.4931 276.442 19.8595 275.507 20.5923C274.572 21.3251 273.868 22.337 273.395 23.6281C272.922 24.9192 272.685 26.3964 272.685 28.0597C272.685 29.7346 272.922 31.2293 273.395 32.5436C273.88 33.8463 274.59 34.8757 275.525 35.6318C276.471 36.3762 277.632 36.7484 279.005 36.7484Z" fill="url(#paint11_linear_1_192)"/>
<path d="M309.875 41.9826C307.208 41.9826 304.905 41.4242 302.966 40.3076C301.038 39.1794 299.555 37.5859 298.516 35.5271C297.477 33.4567 296.957 31.0199 296.957 28.2167C296.957 25.4601 297.477 23.0407 298.516 20.9587C299.566 18.865 301.032 17.2366 302.914 16.0735C304.796 14.8987 307.006 14.3113 309.546 14.3113C311.185 14.3113 312.732 14.5788 314.187 15.1139C315.653 15.6373 316.946 16.4515 318.065 17.5565C319.197 18.6615 320.086 20.0689 320.732 21.7787C321.378 23.4769 321.702 25.5008 321.702 27.8503V29.787H299.901V25.5298H315.693C315.682 24.3202 315.422 23.2443 314.914 22.3021C314.406 21.3483 313.696 20.5981 312.784 20.0514C311.884 19.5047 310.833 19.2314 309.633 19.2314C308.351 19.2314 307.226 19.5455 306.256 20.1736C305.286 20.79 304.53 21.6042 303.988 22.6162C303.457 23.6165 303.185 24.7156 303.174 25.9137V29.6299C303.174 31.1886 303.457 32.5262 304.022 33.6428C304.588 34.7478 305.379 35.5969 306.395 36.1901C307.41 36.7717 308.599 37.0624 309.962 37.0624C310.874 37.0624 311.699 36.9345 312.438 36.6786C313.177 36.4111 313.817 36.0214 314.36 35.5096C314.902 34.9979 315.312 34.3639 315.589 33.6079L321.442 34.2709C321.073 35.8295 320.368 37.1904 319.329 38.3535C318.302 39.5051 316.986 40.4007 315.381 41.0404C313.777 41.6685 311.941 41.9826 309.875 41.9826Z" fill="url(#paint12_linear_1_192)"/>
<path d="M350 14.6602L340.528 41.4591H333.602L324.13 14.6602H330.814L336.927 34.5675H337.204L343.333 14.6602H350Z" fill="url(#paint13_linear_1_192)"/>
<path d="M23.2899 14.6602V19.5455H8V14.6602H23.2899ZM11.7748 8.23967H18.0432V33.3985C18.0432 34.2476 18.1701 34.899 18.4241 35.3526C18.6896 35.7946 19.0359 36.097 19.4631 36.2599C19.8902 36.4227 20.3635 36.5041 20.883 36.5041C21.2754 36.5041 21.6333 36.4751 21.9565 36.4169C22.2913 36.3587 22.5453 36.3064 22.7184 36.2599L23.7747 41.1974C23.4399 41.3137 22.9608 41.4417 22.3375 41.5813C21.7257 41.7208 20.9753 41.8023 20.0864 41.8255C18.5165 41.8721 17.1023 41.6336 15.8441 41.1102C14.5858 40.5751 13.5872 39.7493 12.8484 38.6327C12.1212 37.5161 11.7633 36.1203 11.7748 34.4454V8.23967Z" fill="url(#paint14_linear_1_192)"/>
<path d="M40.0212 41.9826C37.3546 41.9826 35.0516 41.4242 33.1122 40.3076C31.1844 39.1794 29.701 37.5859 28.6621 35.5271C27.6231 33.4567 27.1037 31.0199 27.1037 28.2167C27.1037 25.4601 27.6231 23.0407 28.6621 20.9587C29.7126 18.865 31.1786 17.2366 33.0603 16.0735C34.9419 14.8987 37.1526 14.3113 39.6922 14.3113C41.3315 14.3113 42.8783 14.5788 44.3329 15.1139C45.7989 15.6373 47.0919 16.4515 48.2116 17.5565C49.3429 18.6615 50.2318 20.0689 50.8782 21.7787C51.5247 23.4769 51.8479 25.5008 51.8479 27.8503V29.787H30.0473V25.5298H45.8393C45.8278 24.3202 45.5681 23.2443 45.0601 22.3021C44.5522 21.3483 43.8423 20.5981 42.9303 20.0514C42.0299 19.5047 40.9794 19.2314 39.7788 19.2314C38.4974 19.2314 37.3719 19.5455 36.4022 20.1736C35.4326 20.79 34.6764 21.6042 34.1339 22.6162C33.6028 23.6165 33.3316 24.7156 33.32 25.9137V29.6299C33.32 31.1886 33.6029 32.5262 34.1685 33.6428C34.7341 34.7478 35.5249 35.5969 36.5408 36.1901C37.5566 36.7717 38.7456 37.0624 40.1078 37.0624C41.0198 37.0624 41.8452 36.9345 42.584 36.6786C43.3228 36.4111 43.9635 36.0214 44.506 35.5096C45.0486 34.9979 45.4584 34.3639 45.7355 33.6079L51.5882 34.2709C51.2188 35.8295 50.5146 37.1904 49.4757 38.3535C48.4483 39.5051 47.1323 40.4007 45.5277 41.0404C43.9231 41.6685 42.0876 41.9826 40.0212 41.9826Z" fill="url(#paint15_linear_1_192)"/>
<path d="M68.7525 41.9826C66.0974 41.9826 63.8175 41.3952 61.9127 40.2204C60.0195 39.0456 58.5592 37.423 57.5318 35.3526C56.516 33.2706 56.008 30.8745 56.008 28.1644C56.008 25.4426 56.5275 23.0407 57.5665 20.9587C58.6054 18.865 60.0715 17.2366 61.9647 16.0735C63.8694 14.8987 66.1205 14.3113 68.7178 14.3113C70.8766 14.3113 72.7871 14.7126 74.4494 15.5152C76.1232 16.3061 77.4566 17.4285 78.4493 18.8825C79.4421 20.3248 80.0078 22.0113 80.1463 23.9422H74.155C73.9126 22.6511 73.3354 21.5751 72.4234 20.7144C71.523 19.8421 70.3167 19.4059 68.8044 19.4059C67.5231 19.4059 66.3975 19.7548 65.4278 20.4527C64.4582 21.139 63.702 22.1276 63.1595 23.4187C62.6285 24.7098 62.3629 26.2568 62.3629 28.0597C62.3629 29.8858 62.6285 31.4561 63.1595 32.7704C63.6905 34.0732 64.4351 35.0793 65.3932 35.7888C66.3629 36.4867 67.5 36.8356 68.8044 36.8356C69.7279 36.8356 70.5533 36.6612 71.2806 36.3122C72.0194 35.9516 72.637 35.434 73.1334 34.7594C73.6298 34.0848 73.9703 33.2648 74.155 32.2994H80.1463C79.9962 34.1953 79.4421 35.876 78.484 37.3416C77.5258 38.7955 76.2214 39.9354 74.5706 40.7612C72.9198 41.5755 70.9804 41.9826 68.7525 41.9826Z" fill="url(#paint16_linear_1_192)"/>
<path d="M91.5617 25.7567V41.4591H85.2934V5.72727H91.4232V19.214H91.7349C92.3582 17.7019 93.3222 16.5096 94.6266 15.6373C95.9426 14.7533 97.6165 14.3113 99.6482 14.3113C101.495 14.3113 103.106 14.7009 104.479 15.4803C105.853 16.2596 106.915 17.3994 107.665 18.8999C108.427 20.4004 108.808 22.2323 108.808 24.3958V41.4591H102.54V25.3728C102.54 23.5699 102.078 22.1684 101.155 21.168C100.243 20.1561 98.9613 19.6501 97.3106 19.6501C96.2023 19.6501 95.2096 19.8944 94.3322 20.3829C93.4665 20.8598 92.7854 21.5519 92.289 22.4591C91.8041 23.3664 91.5617 24.4656 91.5617 25.7567Z" fill="url(#paint17_linear_1_192)"/>
<path d="M121.466 25.7567V41.4591H115.198V14.6602H121.189V19.214H121.501C122.113 17.7135 123.088 16.5213 124.427 15.6373C125.778 14.7533 127.446 14.3113 129.431 14.3113C131.267 14.3113 132.866 14.7068 134.228 15.4977C135.602 16.2886 136.664 17.4343 137.414 18.9348C138.176 20.4353 138.551 22.2556 138.539 24.3958V41.4591H132.271V25.3728C132.271 23.5816 131.809 22.18 130.886 21.168C129.974 20.1561 128.71 19.6501 127.094 19.6501C125.997 19.6501 125.022 19.8944 124.167 20.3829C123.325 20.8598 122.661 21.5519 122.176 22.4591C121.703 23.3664 121.466 24.4656 121.466 25.7567Z" fill="url(#paint18_linear_1_192)"/>
<path d="M144.912 41.4591V14.6602H151.18V41.4591H144.912ZM148.063 10.8568C147.07 10.8568 146.216 10.5253 145.5 9.86226C144.785 9.18763 144.427 8.37925 144.427 7.4371C144.427 6.48332 144.785 5.67493 145.5 5.01194C146.216 4.33731 147.07 4 148.063 4C149.067 4 149.922 4.33731 150.626 5.01194C151.342 5.67493 151.699 6.48332 151.699 7.4371C151.699 8.37925 151.342 9.18763 150.626 9.86226C149.922 10.5253 149.067 10.8568 148.063 10.8568Z" fill="url(#paint19_linear_1_192)"/>
<path d="M169.227 41.9826C166.572 41.9826 164.292 41.3952 162.388 40.2204C160.494 39.0456 159.034 37.423 158.007 35.3526C156.991 33.2706 156.483 30.8745 156.483 28.1644C156.483 25.4426 157.002 23.0407 158.041 20.9587C159.08 18.865 160.546 17.2366 162.44 16.0735C164.344 14.8987 166.595 14.3113 169.193 14.3113C171.351 14.3113 173.262 14.7126 174.924 15.5152C176.598 16.3061 177.931 17.4285 178.924 18.8825C179.917 20.3248 180.483 22.0113 180.621 23.9422H174.63C174.387 22.6511 173.81 21.5751 172.898 20.7144C171.998 19.8421 170.792 19.4059 169.279 19.4059C167.998 19.4059 166.872 19.7548 165.903 20.4527C164.933 21.139 164.177 22.1276 163.634 23.4187C163.103 24.7098 162.838 26.2568 162.838 28.0597C162.838 29.8858 163.103 31.4561 163.634 32.7704C164.165 34.0732 164.91 35.0793 165.868 35.7888C166.838 36.4867 167.975 36.8356 169.279 36.8356C170.203 36.8356 171.028 36.6612 171.756 36.3122C172.494 35.9516 173.112 35.434 173.608 34.7594C174.105 34.0848 174.445 33.2648 174.63 32.2994H180.621C180.471 34.1953 179.917 35.876 178.959 37.3416C178.001 38.7955 176.696 39.9354 175.046 40.7612C173.395 41.5755 171.455 41.9826 169.227 41.9826Z" fill="url(#paint20_linear_1_192)"/>
<path d="M193.422 42C191.736 42 190.218 41.6976 188.868 41.0927C187.529 40.4763 186.467 39.569 185.682 38.371C184.908 37.1729 184.522 35.6957 184.522 33.9394C184.522 32.4273 184.799 31.1769 185.353 30.1882C185.907 29.1996 186.663 28.4086 187.621 27.8154C188.579 27.2222 189.659 26.7744 190.859 26.472C192.071 26.1579 193.324 25.9311 194.617 25.7916C196.175 25.6287 197.439 25.4833 198.409 25.3554C199.379 25.2158 200.083 25.0064 200.521 24.7273C200.972 24.4365 201.197 23.9887 201.197 23.3838V23.2792C201.197 21.9648 200.81 20.947 200.037 20.2259C199.263 19.5047 198.149 19.1442 196.695 19.1442C195.159 19.1442 193.941 19.4815 193.041 20.1561C192.152 20.8307 191.552 21.6275 191.24 22.5464L185.387 21.7089C185.849 20.0805 186.611 18.7196 187.673 17.6263C188.735 16.5213 190.034 15.6954 191.569 15.1488C193.104 14.5905 194.801 14.3113 196.66 14.3113C197.941 14.3113 199.217 14.4625 200.487 14.7649C201.757 15.0673 202.917 15.5675 203.967 16.2654C205.018 16.9516 205.86 17.888 206.495 19.0744C207.142 20.2608 207.465 21.7438 207.465 23.5234V41.4591H201.439V37.7778H201.231C200.85 38.5222 200.314 39.2201 199.621 39.8714C198.94 40.5112 198.08 41.0288 197.041 41.4242C196.014 41.8081 194.807 42 193.422 42ZM195.05 37.359C196.308 37.359 197.399 37.109 198.322 36.6088C199.246 36.097 199.956 35.4224 200.452 34.5849C200.96 33.7475 201.214 32.8344 201.214 31.8457V28.6878C201.018 28.8506 200.683 29.0018 200.21 29.1414C199.748 29.281 199.228 29.4031 198.651 29.5078C198.074 29.6125 197.503 29.7055 196.937 29.787C196.371 29.8684 195.881 29.9382 195.465 29.9963C194.53 30.1243 193.693 30.3336 192.954 30.6244C192.216 30.9152 191.633 31.3223 191.205 31.8457C190.778 32.3575 190.565 33.0205 190.565 33.8347C190.565 34.9979 190.986 35.876 191.829 36.4692C192.672 37.0624 193.745 37.359 195.05 37.359Z" fill="url(#paint21_linear_1_192)"/>
<path d="M220.036 5.72727V41.4591H213.768V5.72727H220.036Z" fill="url(#paint22_linear_1_192)"/>
<path d="M247.503 21.7438L241.789 22.3719C241.628 21.7903 241.345 21.2437 240.941 20.7319C240.548 20.2201 240.017 19.8072 239.348 19.4931C238.678 19.1791 237.859 19.022 236.889 19.022C235.584 19.022 234.488 19.307 233.599 19.877C232.722 20.4469 232.289 21.1855 232.3 22.0927C232.289 22.8721 232.571 23.506 233.149 23.9945C233.737 24.483 234.707 24.8843 236.058 25.1983L240.594 26.1754C243.111 26.7221 244.981 27.5886 246.205 28.775C247.44 29.9614 248.063 31.5142 248.075 33.4334C248.063 35.12 247.573 36.6088 246.603 37.8999C245.645 39.1794 244.312 40.1797 242.603 40.9008C240.895 41.622 238.932 41.9826 236.716 41.9826C233.46 41.9826 230.84 41.2963 228.854 39.9238C226.869 38.5396 225.686 36.6146 225.305 34.1488L231.417 33.5556C231.694 34.7652 232.283 35.6783 233.183 36.2948C234.084 36.9112 235.255 37.2195 236.698 37.2195C238.188 37.2195 239.382 36.9112 240.283 36.2948C241.195 35.6783 241.651 34.9164 241.651 34.0092C241.651 33.2415 241.356 32.6076 240.768 32.1074C240.19 31.6073 239.29 31.2234 238.066 30.9559L233.53 29.9963C230.978 29.4613 229.091 28.5598 227.867 27.292C226.644 26.0126 226.038 24.3958 226.049 22.4417C226.038 20.79 226.482 19.3594 227.383 18.1497C228.294 16.9284 229.559 15.9862 231.175 15.3232C232.802 14.6486 234.678 14.3113 236.802 14.3113C239.919 14.3113 242.372 14.9801 244.162 16.3177C245.962 17.6553 247.076 19.464 247.503 21.7438Z" fill="url(#paint23_linear_1_192)"/>
<path d="M257.105 41.843C256.055 41.843 255.154 41.4708 254.404 40.7264C253.653 39.9819 253.284 39.0747 253.296 38.0046C253.284 36.9578 253.653 36.0621 254.404 35.3177C255.154 34.5733 256.055 34.2011 257.105 34.2011C258.121 34.2011 259.004 34.5733 259.754 35.3177C260.516 36.0621 260.903 36.9578 260.915 38.0046C260.903 38.7141 260.718 39.3597 260.36 39.9412C260.014 40.5228 259.552 40.9881 258.975 41.337C258.41 41.6743 257.786 41.843 257.105 41.843Z" fill="url(#paint24_linear_1_192)"/>
<path d="M277.256 41.9302C275.167 41.9302 273.297 41.3894 271.646 40.3076C269.995 39.2259 268.691 37.6556 267.733 35.5969C266.775 33.5381 266.295 31.0373 266.295 28.0946C266.295 25.1169 266.78 22.6045 267.75 20.5574C268.731 18.4986 270.053 16.9458 271.715 15.899C273.378 14.8405 275.23 14.3113 277.274 14.3113C278.832 14.3113 280.113 14.5788 281.118 15.1139C282.122 15.6373 282.919 16.2712 283.507 17.0156C284.096 17.7484 284.552 18.4405 284.875 19.0918H285.135V5.72727H291.421V41.4591H285.256V37.2369H284.875C284.552 37.8883 284.085 38.5803 283.473 39.3131C282.861 40.0343 282.053 40.6507 281.048 41.1625C280.044 41.6743 278.78 41.9302 277.256 41.9302ZM279.005 36.7484C280.333 36.7484 281.464 36.3878 282.399 35.6667C283.334 34.9339 284.044 33.9161 284.529 32.6134C285.014 31.3107 285.256 29.7928 285.256 28.0597C285.256 26.3266 285.014 24.8203 284.529 23.5409C284.056 22.2614 283.352 21.2669 282.416 20.5574C281.493 19.8479 280.356 19.4931 279.005 19.4931C277.608 19.4931 276.442 19.8595 275.507 20.5923C274.572 21.3251 273.868 22.337 273.395 23.6281C272.922 24.9192 272.685 26.3964 272.685 28.0597C272.685 29.7346 272.922 31.2293 273.395 32.5436C273.88 33.8463 274.59 34.8757 275.525 35.6318C276.471 36.3762 277.632 36.7484 279.005 36.7484Z" fill="url(#paint25_linear_1_192)"/>
<path d="M309.875 41.9826C307.208 41.9826 304.905 41.4242 302.966 40.3076C301.038 39.1794 299.555 37.5859 298.516 35.5271C297.477 33.4567 296.957 31.0199 296.957 28.2167C296.957 25.4601 297.477 23.0407 298.516 20.9587C299.566 18.865 301.032 17.2366 302.914 16.0735C304.796 14.8987 307.006 14.3113 309.546 14.3113C311.185 14.3113 312.732 14.5788 314.187 15.1139C315.653 15.6373 316.946 16.4515 318.065 17.5565C319.197 18.6615 320.086 20.0689 320.732 21.7787C321.378 23.4769 321.702 25.5008 321.702 27.8503V29.787H299.901V25.5298H315.693C315.682 24.3202 315.422 23.2443 314.914 22.3021C314.406 21.3483 313.696 20.5981 312.784 20.0514C311.884 19.5047 310.833 19.2314 309.633 19.2314C308.351 19.2314 307.226 19.5455 306.256 20.1736C305.286 20.79 304.53 21.6042 303.988 22.6162C303.457 23.6165 303.185 24.7156 303.174 25.9137V29.6299C303.174 31.1886 303.457 32.5262 304.022 33.6428C304.588 34.7478 305.379 35.5969 306.395 36.1901C307.41 36.7717 308.599 37.0624 309.962 37.0624C310.874 37.0624 311.699 36.9345 312.438 36.6786C313.177 36.4111 313.817 36.0214 314.36 35.5096C314.902 34.9979 315.312 34.3639 315.589 33.6079L321.442 34.2709C321.073 35.8295 320.368 37.1904 319.329 38.3535C318.302 39.5051 316.986 40.4007 315.381 41.0404C313.777 41.6685 311.941 41.9826 309.875 41.9826Z" fill="url(#paint26_linear_1_192)"/>
<path d="M350 14.6602L340.528 41.4591H333.602L324.13 14.6602H330.814L336.927 34.5675H337.204L343.333 14.6602H350Z" fill="url(#paint27_linear_1_192)"/>
</g>
<defs>
<filter id="filter0_d_1_192" x="0" y="0" width="358" height="54" filterUnits="userSpaceOnUse" color-interpolation-filters="sRGB">
<feFlood flood-opacity="0" result="BackgroundImageFix"/>
<feColorMatrix in="SourceAlpha" type="matrix" values="0 0 0 0 0 0 0 0 0 0 0 0 0 0 0 0 0 0 127 0" result="hardAlpha"/>
<feOffset dy="4"/>
<feGaussianBlur stdDeviation="4"/>
<feComposite in2="hardAlpha" operator="out"/>
<feColorMatrix type="matrix" values="0 0 0 0 0 0 0 0 0 0 0 0 0 0 0 0 0 0 0.25 0"/>
<feBlend mode="normal" in2="BackgroundImageFix" result="effect1_dropShadow_1_192"/>
<feBlend mode="normal" in="SourceGraphic" in2="effect1_dropShadow_1_192" result="shape"/>
</filter>
<linearGradient id="paint0_linear_1_192" x1="6.78789" y1="19.9642" x2="370.974" y2="19.9642" gradientUnits="userSpaceOnUse">
<stop stop-color="#F90ACD"/>
<stop offset="0.240385" stop-color="#C608A3"/>
<stop offset="0.509615" stop-color="#8F0790"/>
<stop offset="0.899582" stop-color="#CF80F3"/>
</linearGradient>
<linearGradient id="paint1_linear_1_192" x1="6.78789" y1="19.9642" x2="370.974" y2="19.9642" gradientUnits="userSpaceOnUse">
<stop stop-color="#F90ACD"/>
<stop offset="0.240385" stop-color="#C608A3"/>
<stop offset="0.509615" stop-color="#8F0790"/>
<stop offset="0.899582" stop-color="#CF80F3"/>
</linearGradient>
<linearGradient id="paint2_linear_1_192" x1="6.78789" y1="19.9642" x2="370.974" y2="19.9642" gradientUnits="userSpaceOnUse">
<stop stop-color="#F90ACD"/>
<stop offset="0.240385" stop-color="#C608A3"/>
<stop offset="0.509615" stop-color="#8F0790"/>
<stop offset="0.899582" stop-color="#CF80F3"/>
</linearGradient>
<linearGradient id="paint3_linear_1_192" x1="6.78789" y1="19.9642" x2="370.974" y2="19.9642" gradientUnits="userSpaceOnUse">
<stop stop-color="#F90ACD"/>
<stop offset="0.240385" stop-color="#C608A3"/>
<stop offset="0.509615" stop-color="#8F0790"/>
<stop offset="0.899582" stop-color="#CF80F3"/>
</linearGradient>
<linearGradient id="paint4_linear_1_192" x1="6.78789" y1="19.9642" x2="370.974" y2="19.9642" gradientUnits="userSpaceOnUse">
<stop stop-color="#F90ACD"/>
<stop offset="0.240385" stop-color="#C608A3"/>
<stop offset="0.509615" stop-color="#8F0790"/>
<stop offset="0.899582" stop-color="#CF80F3"/>
</linearGradient>
<linearGradient id="paint5_linear_1_192" x1="6.78789" y1="19.9642" x2="370.974" y2="19.9642" gradientUnits="userSpaceOnUse">
<stop stop-color="#F90ACD"/>
<stop offset="0.240385" stop-color="#C608A3"/>
<stop offset="0.509615" stop-color="#8F0790"/>
<stop offset="0.899582" stop-color="#CF80F3"/>
</linearGradient>
<linearGradient id="paint6_linear_1_192" x1="6.78789" y1="19.9642" x2="370.974" y2="19.9642" gradientUnits="userSpaceOnUse">
<stop stop-color="#F90ACD"/>
<stop offset="0.240385" stop-color="#C608A3"/>
<stop offset="0.509615" stop-color="#8F0790"/>
<stop offset="0.899582" stop-color="#CF80F3"/>
</linearGradient>
<linearGradient id="paint7_linear_1_192" x1="6.78789" y1="19.9642" x2="370.974" y2="19.9642" gradientUnits="userSpaceOnUse">
<stop stop-color="#F90ACD"/>
<stop offset="0.240385" stop-color="#C608A3"/>
<stop offset="0.509615" stop-color="#8F0790"/>
<stop offset="0.899582" stop-color="#CF80F3"/>
</linearGradient>
<linearGradient id="paint8_linear_1_192" x1="6.78789" y1="19.9642" x2="370.974" y2="19.9642" gradientUnits="userSpaceOnUse">
<stop stop-color="#F90ACD"/>
<stop offset="0.240385" stop-color="#C608A3"/>
<stop offset="0.509615" stop-color="#8F0790"/>
<stop offset="0.899582" stop-color="#CF80F3"/>
</linearGradient>
<linearGradient id="paint9_linear_1_192" x1="6.78789" y1="19.9642" x2="370.974" y2="19.9642" gradientUnits="userSpaceOnUse">
<stop stop-color="#F90ACD"/>
<stop offset="0.240385" stop-color="#C608A3"/>
<stop offset="0.509615" stop-color="#8F0790"/>
<stop offset="0.899582" stop-color="#CF80F3"/>
</linearGradient>
<linearGradient id="paint10_linear_1_192" x1="6.78789" y1="19.9642" x2="370.974" y2="19.9642" gradientUnits="userSpaceOnUse">
<stop stop-color="#F90ACD"/>
<stop offset="0.240385" stop-color="#C608A3"/>
<stop offset="0.509615" stop-color="#8F0790"/>
<stop offset="0.899582" stop-color="#CF80F3"/>
</linearGradient>
<linearGradient id="paint11_linear_1_192" x1="6.78789" y1="19.9642" x2="370.974" y2="19.9642" gradientUnits="userSpaceOnUse">
<stop stop-color="#F90ACD"/>
<stop offset="0.240385" stop-color="#C608A3"/>
<stop offset="0.509615" stop-color="#8F0790"/>
<stop offset="0.899582" stop-color="#CF80F3"/>
</linearGradient>
<linearGradient id="paint12_linear_1_192" x1="6.78789" y1="19.9642" x2="370.974" y2="19.9642" gradientUnits="userSpaceOnUse">
<stop stop-color="#F90ACD"/>
<stop offset="0.240385" stop-color="#C608A3"/>
<stop offset="0.509615" stop-color="#8F0790"/>
<stop offset="0.899582" stop-color="#CF80F3"/>
</linearGradient>
<linearGradient id="paint13_linear_1_192" x1="6.78789" y1="19.9642" x2="370.974" y2="19.9642" gradientUnits="userSpaceOnUse">
<stop stop-color="#F90ACD"/>
<stop offset="0.240385" stop-color="#C608A3"/>
<stop offset="0.509615" stop-color="#8F0790"/>
<stop offset="0.899582" stop-color="#CF80F3"/>
</linearGradient>
<linearGradient id="paint14_linear_1_192" x1="6.78789" y1="19.9642" x2="370.974" y2="19.9642" gradientUnits="userSpaceOnUse">
<stop stop-color="#F90ACD"/>
<stop offset="0.240385" stop-color="#C608A3"/>
<stop offset="0.509615" stop-color="#8F0790"/>
<stop offset="0.899582" stop-color="#CF80F3"/>
</linearGradient>
<linearGradient id="paint15_linear_1_192" x1="6.78789" y1="19.9642" x2="370.974" y2="19.9642" gradientUnits="userSpaceOnUse">
<stop stop-color="#F90ACD"/>
<stop offset="0.240385" stop-color="#C608A3"/>
<stop offset="0.509615" stop-color="#8F0790"/>
<stop offset="0.899582" stop-color="#CF80F3"/>
</linearGradient>
<linearGradient id="paint16_linear_1_192" x1="6.78789" y1="19.9642" x2="370.974" y2="19.9642" gradientUnits="userSpaceOnUse">
<stop stop-color="#F90ACD"/>
<stop offset="0.240385" stop-color="#C608A3"/>
<stop offset="0.509615" stop-color="#8F0790"/>
<stop offset="0.899582" stop-color="#CF80F3"/>
</linearGradient>
<linearGradient id="paint17_linear_1_192" x1="6.78789" y1="19.9642" x2="370.974" y2="19.9642" gradientUnits="userSpaceOnUse">
<stop stop-color="#F90ACD"/>
<stop offset="0.240385" stop-color="#C608A3"/>
<stop offset="0.509615" stop-color="#8F0790"/>
<stop offset="0.899582" stop-color="#CF80F3"/>
</linearGradient>
<linearGradient id="paint18_linear_1_192" x1="6.78789" y1="19.9642" x2="370.974" y2="19.9642" gradientUnits="userSpaceOnUse">
<stop stop-color="#F90ACD"/>
<stop offset="0.240385" stop-color="#C608A3"/>
<stop offset="0.509615" stop-color="#8F0790"/>
<stop offset="0.899582" stop-color="#CF80F3"/>
</linearGradient>
<linearGradient id="paint19_linear_1_192" x1="6.78789" y1="19.9642" x2="370.974" y2="19.9642" gradientUnits="userSpaceOnUse">
<stop stop-color="#F90ACD"/>
<stop offset="0.240385" stop-color="#C608A3"/>
<stop offset="0.509615" stop-color="#8F0790"/>
<stop offset="0.899582" stop-color="#CF80F3"/>
</linearGradient>
<linearGradient id="paint20_linear_1_192" x1="6.78789" y1="19.9642" x2="370.974" y2="19.9642" gradientUnits="userSpaceOnUse">
<stop stop-color="#F90ACD"/>
<stop offset="0.240385" stop-color="#C608A3"/>
<stop offset="0.509615" stop-color="#8F0790"/>
<stop offset="0.899582" stop-color="#CF80F3"/>
</linearGradient>
<linearGradient id="paint21_linear_1_192" x1="6.78789" y1="19.9642" x2="370.974" y2="19.9642" gradientUnits="userSpaceOnUse">
<stop stop-color="#F90ACD"/>
<stop offset="0.240385" stop-color="#C608A3"/>
<stop offset="0.509615" stop-color="#8F0790"/>
<stop offset="0.899582" stop-color="#CF80F3"/>
</linearGradient>
<linearGradient id="paint22_linear_1_192" x1="6.78789" y1="19.9642" x2="370.974" y2="19.9642" gradientUnits="userSpaceOnUse">
<stop stop-color="#F90ACD"/>
<stop offset="0.240385" stop-color="#C608A3"/>
<stop offset="0.509615" stop-color="#8F0790"/>
<stop offset="0.899582" stop-color="#CF80F3"/>
</linearGradient>
<linearGradient id="paint23_linear_1_192" x1="6.78789" y1="19.9642" x2="370.974" y2="19.9642" gradientUnits="userSpaceOnUse">
<stop stop-color="#F90ACD"/>
<stop offset="0.240385" stop-color="#C608A3"/>
<stop offset="0.509615" stop-color="#8F0790"/>
<stop offset="0.899582" stop-color="#CF80F3"/>
</linearGradient>
<linearGradient id="paint24_linear_1_192" x1="6.78789" y1="19.9642" x2="370.974" y2="19.9642" gradientUnits="userSpaceOnUse">
<stop stop-color="#F90ACD"/>
<stop offset="0.240385" stop-color="#C608A3"/>
<stop offset="0.509615" stop-color="#8F0790"/>
<stop offset="0.899582" stop-color="#CF80F3"/>
</linearGradient>
<linearGradient id="paint25_linear_1_192" x1="6.78789" y1="19.9642" x2="370.974" y2="19.9642" gradientUnits="userSpaceOnUse">
<stop stop-color="#F90ACD"/>
<stop offset="0.240385" stop-color="#C608A3"/>
<stop offset="0.509615" stop-color="#8F0790"/>
<stop offset="0.899582" stop-color="#CF80F3"/>
</linearGradient>
<linearGradient id="paint26_linear_1_192" x1="6.78789" y1="19.9642" x2="370.974" y2="19.9642" gradientUnits="userSpaceOnUse">
<stop stop-color="#F90ACD"/>
<stop offset="0.240385" stop-color="#C608A3"/>
<stop offset="0.509615" stop-color="#8F0790"/>
<stop offset="0.899582" stop-color="#CF80F3"/>
</linearGradient>
<linearGradient id="paint27_linear_1_192" x1="6.78789" y1="19.9642" x2="370.974" y2="19.9642" gradientUnits="userSpaceOnUse">
<stop stop-color="#F90ACD"/>
<stop offset="0.240385" stop-color="#C608A3"/>
<stop offset="0.509615" stop-color="#8F0790"/>
<stop offset="0.899582" stop-color="#CF80F3"/>
</linearGradient>
</defs>
</svg>
